<?xml version='1.0' encoding='utf-8'?>
<svg height="616.55mm" viewBox="0.0 0.0 1134.03 616.55" width="1134.03mm" xmlns="http://www.w3.org/2000/svg" xmlns:cc="http://creativecommons.org/ns#" xmlns:dc="http://purl.org/dc/elements/1.1/" xmlns:inkscape="http://www.inkscape.org/namespaces/inkscape" xmlns:rdf="http://www.w3.org/1999/02/22-rdf-syntax-ns#" xmlns:svg="http://www.w3.org/2000/svg" xmlns:xlink="http://www.w3.org/1999/xlink">
<!--
Console - Console with slanted panel




Console Arcade Stick

![Front](static/samples/ConsoleArcadeStickFront.jpg)
![Back](static/samples/ConsoleArcadeStickBack.jpg)
![Inside](static/samples/ConsoleArcadeStickInside.jpg)

Keyboard enclosure:



Created with Boxes.py (https://festi.info/boxes.py)
Creation date: 2024-03-25 13:07:39
Command line (remove spaces between dashes): boxes Console - -FingerJoint_finger=4 - -FingerJoint_width=2 - -x=575 - -y=200 - -h=200 - -front_height=40 - -angle=30 - -thickness=5
Url: http://festi.info/boxes.py/Console?FingerJoint_angle=90.0&FingerJoint_style=rectangular&FingerJoint_surroundingspaces=0.5&FingerJoint_bottom_lip=0.0&FingerJoint_edge_width=1.0&FingerJoint_extra_length=0.0&FingerJoint_finger=4&FingerJoint_play=0.0&FingerJoint_space=2.0&FingerJoint_width=2&Stackable_angle=60&Stackable_bottom_stabilizers=0.0&Stackable_height=2.0&Stackable_holedistance=1.0&Stackable_width=4.0&x=575&y=200&h=200&outside=0&front_height=40&angle=30&thickness=5&format=svg&tabs=0.0&qr_code=0&debug=0&labels=0&labels=1&reference=100&inner_corners=loop&burn=0.1&language=en&render=2
Url short: http://festi.info/boxes.py/Console?FingerJoint_finger=4&FingerJoint_width=2&x=575&y=200&h=200&front_height=40&angle=30&thickness=5
SettingsUrl: http://festi.info/boxes.py/Console?FingerJoint_angle=90.0&FingerJoint_style=rectangular&FingerJoint_surroundingspaces=0.5&FingerJoint_bottom_lip=0.0&FingerJoint_edge_width=1.0&FingerJoint_extra_length=0.0&FingerJoint_finger=4&FingerJoint_play=0.0&FingerJoint_space=2.0&FingerJoint_width=2&Stackable_angle=60&Stackable_bottom_stabilizers=0.0&Stackable_height=2.0&Stackable_holedistance=1.0&Stackable_width=4.0&x=575&y=200&h=200&outside=0&front_height=40&angle=30&thickness=5&format=svg&tabs=0.0&qr_code=0&debug=0&labels=0&labels=1&reference=100&inner_corners=loop&burn=0.1&language=en&render=2
SettingsUrl short: http://festi.info/boxes.py/Console?FingerJoint_finger=4&FingerJoint_width=2&x=575&y=200&h=200&front_height=40&angle=30&thickness=5
-->
<title>Console</title>
<metadata>
<rdf:RDF><cc:Work>
<dc:title>Box - Console</dc:title>
<dc:date>2024-03-25 13:07:39</dc:date>
<dc:source>http://festi.info/boxes.py/Console?FingerJoint_angle=90.0&amp;FingerJoint_style=rectangular&amp;FingerJoint_surroundingspaces=0.5&amp;FingerJoint_bottom_lip=0.0&amp;FingerJoint_edge_width=1.0&amp;FingerJoint_extra_length=0.0&amp;FingerJoint_finger=4&amp;FingerJoint_play=0.0&amp;FingerJoint_space=2.0&amp;FingerJoint_width=2&amp;Stackable_angle=60&amp;Stackable_bottom_stabilizers=0.0&amp;Stackable_height=2.0&amp;Stackable_holedistance=1.0&amp;Stackable_width=4.0&amp;x=575&amp;y=200&amp;h=200&amp;outside=0&amp;front_height=40&amp;angle=30&amp;thickness=5&amp;format=svg&amp;tabs=0.0&amp;qr_code=0&amp;debug=0&amp;labels=0&amp;labels=1&amp;reference=100&amp;inner_corners=loop&amp;burn=0.1&amp;language=en&amp;render=2</dc:source>
<dc:source>http://festi.info/boxes.py/Console?FingerJoint_finger=4&amp;FingerJoint_width=2&amp;x=575&amp;y=200&amp;h=200&amp;front_height=40&amp;angle=30&amp;thickness=5</dc:source>
<dc:description>Console with slanted panel



Console Arcade Stick

![Front](static/samples/ConsoleArcadeStickFront.jpg)
![Back](static/samples/ConsoleArcadeStickBack.jpg)
![Inside](static/samples/ConsoleArcadeStickInside.jpg)

Keyboard enclosure:


Created with Boxes.py (https://festi.info/boxes.py)
Command line: boxes Console --FingerJoint_angle=90.0 --FingerJoint_style=rectangular --FingerJoint_surroundingspaces=0.5 --FingerJoint_bottom_lip=0.0 --FingerJoint_edge_width=1.0 --FingerJoint_extra_length=0.0 --FingerJoint_finger=4 --FingerJoint_play=0.0 --FingerJoint_space=2.0 --FingerJoint_width=2 --Stackable_angle=60 --Stackable_bottom_stabilizers=0.0 --Stackable_height=2.0 --Stackable_holedistance=1.0 --Stackable_width=4.0 --x=575 --y=200 --h=200 --outside=0 --front_height=40 --angle=30 --thickness=5 --format=svg --tabs=0.0 --qr_code=0 --debug=0 --labels=0 --labels=1 --reference=100 --inner_corners=loop --burn=0.1
Command line short: boxes Console --FingerJoint_finger=4 --FingerJoint_width=2 --x=575 --y=200 --h=200 --front_height=40 --angle=30 --thickness=5
Url: http://festi.info/boxes.py/Console?FingerJoint_angle=90.0&amp;FingerJoint_style=rectangular&amp;FingerJoint_surroundingspaces=0.5&amp;FingerJoint_bottom_lip=0.0&amp;FingerJoint_edge_width=1.0&amp;FingerJoint_extra_length=0.0&amp;FingerJoint_finger=4&amp;FingerJoint_play=0.0&amp;FingerJoint_space=2.0&amp;FingerJoint_width=2&amp;Stackable_angle=60&amp;Stackable_bottom_stabilizers=0.0&amp;Stackable_height=2.0&amp;Stackable_holedistance=1.0&amp;Stackable_width=4.0&amp;x=575&amp;y=200&amp;h=200&amp;outside=0&amp;front_height=40&amp;angle=30&amp;thickness=5&amp;format=svg&amp;tabs=0.0&amp;qr_code=0&amp;debug=0&amp;labels=0&amp;labels=1&amp;reference=100&amp;inner_corners=loop&amp;burn=0.1&amp;language=en&amp;render=2
Url short: http://festi.info/boxes.py/Console?FingerJoint_finger=4&amp;FingerJoint_width=2&amp;x=575&amp;y=200&amp;h=200&amp;front_height=40&amp;angle=30&amp;thickness=5
SettingsUrl: http://festi.info/boxes.py/Console?FingerJoint_angle=90.0&amp;FingerJoint_style=rectangular&amp;FingerJoint_surroundingspaces=0.5&amp;FingerJoint_bottom_lip=0.0&amp;FingerJoint_edge_width=1.0&amp;FingerJoint_extra_length=0.0&amp;FingerJoint_finger=4&amp;FingerJoint_play=0.0&amp;FingerJoint_space=2.0&amp;FingerJoint_width=2&amp;Stackable_angle=60&amp;Stackable_bottom_stabilizers=0.0&amp;Stackable_height=2.0&amp;Stackable_holedistance=1.0&amp;Stackable_width=4.0&amp;x=575&amp;y=200&amp;h=200&amp;outside=0&amp;front_height=40&amp;angle=30&amp;thickness=5&amp;format=svg&amp;tabs=0.0&amp;qr_code=0&amp;debug=0&amp;labels=0&amp;labels=1&amp;reference=100&amp;inner_corners=loop&amp;burn=0.1&amp;language=en&amp;render=2
SettingsUrl short: http://festi.info/boxes.py/Console?FingerJoint_finger=4&amp;FingerJoint_width=2&amp;x=575&amp;y=200&amp;h=200&amp;front_height=40&amp;angle=30&amp;thickness=5
</dc:description>
</cc:Work></rdf:RDF></metadata>
<g id="p-0" style="fill:none;stroke-linecap:round;stroke-linejoin:round;">
  <path d="M 18.800 606.550 H 118.800 V 596.550 H 18.800 V 606.550 Z" stroke="rgb(0,0,0)" stroke-width="0.20" />
  <text dominant-baseline="hanging" font-size="8px" style="font-family: sans-serif ; font-weight: normal; font-style: normal; fill: rgb(255,0,0)" text-anchor="middle" transform="matrix( 1.000 0.000 0.000 1.000 68.800 597.550 )">100.00mm, burn:0.10mm</text>
</g>
<g id="p-1" style="fill:none;stroke-linecap:round;stroke-linejoin:round;">
  <path d="M 23.800 588.850 H 38.700 C 38.800 588.850 38.700 588.750 38.700 588.850 V 593.750 C 38.700 593.805 38.745 593.850 38.800 593.850 H 58.800 C 58.855 593.850 58.900 593.805 58.900 593.750 V 588.850 C 58.900 588.750 58.800 588.850 58.900 588.850 H 68.700 C 68.800 588.850 68.700 588.750 68.700 588.850 V 593.750 C 68.700 593.805 68.745 593.850 68.800 593.850 H 88.800 C 88.855 593.850 88.900 593.805 88.900 593.750 V 588.850 C 88.900 588.750 88.800 588.850 88.900 588.850 H 98.700 C 98.800 588.850 98.700 588.750 98.700 588.850 V 593.750 C 98.700 593.805 98.745 593.850 98.800 593.850 H 118.800 C 118.855 593.850 118.900 593.805 118.900 593.750 V 588.850 C 118.900 588.750 118.800 588.850 118.900 588.850 H 128.700 C 128.800 588.850 128.700 588.750 128.700 588.850 V 593.750 C 128.700 593.805 128.745 593.850 128.800 593.850 H 148.800 C 148.855 593.850 148.900 593.805 148.900 593.750 V 588.850 C 148.900 588.750 148.800 588.850 148.900 588.850 H 158.700 C 158.800 588.850 158.700 588.750 158.700 588.850 V 593.750 C 158.700 593.805 158.745 593.850 158.800 593.850 H 178.800 C 178.855 593.850 178.900 593.805 178.900 593.750 V 588.850 C 178.900 588.750 178.800 588.850 178.900 588.850 H 188.700 C 188.800 588.850 188.700 588.750 188.700 588.850 V 593.750 C 188.700 593.805 188.745 593.850 188.800 593.850 H 208.800 C 208.855 593.850 208.900 593.805 208.900 593.750 V 588.850 C 208.900 588.750 208.800 588.850 208.900 588.850 H 223.800 C 223.855 588.850 223.900 588.805 223.900 588.750 V 578.850 C 223.900 578.750 223.800 578.850 223.900 578.850 H 228.800 C 228.855 578.850 228.900 578.805 228.900 578.750 V 558.750 C 228.900 558.695 228.855 558.650 228.800 558.650 H 223.900 C 223.800 558.650 223.900 558.750 223.900 558.650 V 548.750 C 223.900 548.714 223.881 548.681 223.850 548.663 L 210.539 540.978 C 210.453 540.928 210.489 541.065 210.539 540.978 L 212.989 536.735 C 213.017 536.687 213.000 536.626 212.953 536.598 L 195.632 526.598 C 195.584 526.571 195.523 526.587 195.495 526.635 L 193.045 530.878 C 192.995 530.965 193.132 530.928 193.045 530.878 L 184.558 525.978 C 184.472 525.928 184.508 526.065 184.558 525.978 L 187.008 521.735 C 187.036 521.687 187.020 521.626 186.972 521.598 L 169.651 511.598 C 169.603 511.571 169.542 511.587 169.515 511.635 L 167.065 515.878 C 167.015 515.965 167.151 515.928 167.065 515.878 L 158.578 510.978 C 158.491 510.928 158.528 511.065 158.578 510.978 L 161.028 506.735 C 161.055 506.687 161.039 506.626 160.991 506.598 L 143.671 496.598 C 143.623 496.571 143.562 496.587 143.534 496.635 L 141.084 500.878 C 141.034 500.965 141.171 500.928 141.084 500.878 L 132.597 495.978 C 132.510 495.928 132.547 496.065 132.597 495.978 L 135.047 491.735 C 135.074 491.687 135.058 491.626 135.010 491.598 L 117.690 481.598 C 117.642 481.571 117.581 481.587 117.553 481.635 L 115.103 485.878 C 115.053 485.965 115.190 485.928 115.103 485.878 L 106.616 480.978 C 106.529 480.928 106.566 481.065 106.616 480.978 L 109.066 476.735 C 109.094 476.687 109.077 476.626 109.029 476.598 L 91.709 466.598 C 91.661 466.571 91.600 466.587 91.572 466.635 L 89.122 470.878 C 89.072 470.965 89.209 470.928 89.122 470.878 L 80.635 465.978 C 80.549 465.928 80.585 466.065 80.635 465.978 L 83.085 461.735 C 83.113 461.687 83.097 461.626 83.049 461.598 L 65.728 451.598 C 65.680 451.571 65.619 451.587 65.592 451.635 L 63.142 455.878 C 63.092 455.965 63.228 455.928 63.142 455.878 L 54.655 450.978 C 54.568 450.928 54.605 451.065 54.655 450.978 L 57.105 446.735 C 57.132 446.687 57.116 446.626 57.068 446.598 L 39.747 436.598 C 39.700 436.571 39.638 436.587 39.611 436.635 L 37.161 440.878 C 37.111 440.965 37.247 440.928 37.161 440.878 L 23.850 433.193 C 23.835 433.185 23.818 433.180 23.800 433.180 C 23.782 433.180 23.765 433.185 23.750 433.193 C 23.735 433.202 23.722 433.215 23.713 433.230 C 23.705 433.245 23.700 433.262 23.700 433.280 V 440.915 C 23.700 441.015 23.800 440.915 23.700 440.915 H 18.800 C 18.745 440.915 18.700 440.960 18.700 441.015 V 461.015 C 18.700 461.070 18.745 461.115 18.800 461.115 H 23.700 C 23.800 461.115 23.700 461.015 23.700 461.115 V 470.915 C 23.700 471.015 23.800 470.915 23.700 470.915 H 18.800 C 18.745 470.915 18.700 470.960 18.700 471.015 V 491.015 C 18.700 491.070 18.745 491.115 18.800 491.115 H 23.700 C 23.800 491.115 23.700 491.015 23.700 491.115 V 500.915 C 23.700 501.015 23.800 500.915 23.700 500.915 H 18.800 C 18.745 500.915 18.700 500.960 18.700 501.015 V 521.015 C 18.700 521.070 18.745 521.115 18.800 521.115 H 23.700 C 23.800 521.115 23.700 521.015 23.700 521.115 V 530.915 C 23.700 531.015 23.800 530.915 23.700 530.915 H 18.800 C 18.745 530.915 18.700 530.960 18.700 531.015 V 551.015 C 18.700 551.070 18.745 551.115 18.800 551.115 H 23.700 C 23.800 551.115 23.700 551.015 23.700 551.115 V 560.915 C 23.700 561.015 23.800 560.915 23.700 560.915 H 18.800 C 18.745 560.915 18.700 560.960 18.700 561.015 V 581.015 C 18.700 581.070 18.745 581.115 18.800 581.115 H 23.700 C 23.800 581.115 23.700 581.015 23.700 581.115 V 588.750 C 23.700 588.805 23.745 588.850 23.800 588.850 Z" stroke="rgb(0,0,0)" stroke-width="0.20" />
</g>
<g id="p-2" style="fill:none;stroke-linecap:round;stroke-linejoin:round;">
  <path d="M 236.500 588.850 H 251.400 C 251.500 588.850 251.400 588.750 251.400 588.850 V 593.750 C 251.400 593.805 251.445 593.850 251.500 593.850 H 271.500 C 271.555 593.850 271.600 593.805 271.600 593.750 V 588.850 C 271.600 588.750 271.500 588.850 271.600 588.850 H 281.400 C 281.500 588.850 281.400 588.750 281.400 588.850 V 593.750 C 281.400 593.805 281.445 593.850 281.500 593.850 H 301.500 C 301.555 593.850 301.600 593.805 301.600 593.750 V 588.850 C 301.600 588.750 301.500 588.850 301.600 588.850 H 311.400 C 311.500 588.850 311.400 588.750 311.400 588.850 V 593.750 C 311.400 593.805 311.445 593.850 311.500 593.850 H 331.500 C 331.555 593.850 331.600 593.805 331.600 593.750 V 588.850 C 331.600 588.750 331.500 588.850 331.600 588.850 H 341.400 C 341.500 588.850 341.400 588.750 341.400 588.850 V 593.750 C 341.400 593.805 341.445 593.850 341.500 593.850 H 361.500 C 361.555 593.850 361.600 593.805 361.600 593.750 V 588.850 C 361.600 588.750 361.500 588.850 361.600 588.850 H 371.400 C 371.500 588.850 371.400 588.750 371.400 588.850 V 593.750 C 371.400 593.805 371.445 593.850 371.500 593.850 H 391.500 C 391.555 593.850 391.600 593.805 391.600 593.750 V 588.850 C 391.600 588.750 391.500 588.850 391.600 588.850 H 401.400 C 401.500 588.850 401.400 588.750 401.400 588.850 V 593.750 C 401.400 593.805 401.445 593.850 401.500 593.850 H 421.500 C 421.555 593.850 421.600 593.805 421.600 593.750 V 588.850 C 421.600 588.750 421.500 588.850 421.600 588.850 H 436.500 C 436.555 588.850 436.600 588.805 436.600 588.750 V 578.850 C 436.600 578.750 436.500 578.850 436.600 578.850 H 441.500 C 441.555 578.850 441.600 578.805 441.600 578.750 V 558.750 C 441.600 558.695 441.555 558.650 441.500 558.650 H 436.600 C 436.500 558.650 436.600 558.750 436.600 558.650 V 548.750 C 436.600 548.714 436.581 548.681 436.550 548.663 L 423.239 540.978 C 423.153 540.928 423.189 541.065 423.239 540.978 L 425.689 536.735 C 425.717 536.687 425.700 536.626 425.653 536.598 L 408.332 526.598 C 408.284 526.571 408.223 526.587 408.195 526.635 L 405.745 530.878 C 405.695 530.965 405.832 530.928 405.745 530.878 L 397.258 525.978 C 397.172 525.928 397.208 526.065 397.258 525.978 L 399.708 521.735 C 399.736 521.687 399.720 521.626 399.672 521.598 L 382.351 511.598 C 382.303 511.571 382.242 511.587 382.215 511.635 L 379.765 515.878 C 379.715 515.965 379.851 515.928 379.765 515.878 L 371.278 510.978 C 371.191 510.928 371.228 511.065 371.278 510.978 L 373.728 506.735 C 373.755 506.687 373.739 506.626 373.691 506.598 L 356.371 496.598 C 356.323 496.571 356.262 496.587 356.234 496.635 L 353.784 500.878 C 353.734 500.965 353.871 500.928 353.784 500.878 L 345.297 495.978 C 345.210 495.928 345.247 496.065 345.297 495.978 L 347.747 491.735 C 347.774 491.687 347.758 491.626 347.710 491.598 L 330.390 481.598 C 330.342 481.571 330.281 481.587 330.253 481.635 L 327.803 485.878 C 327.753 485.965 327.890 485.928 327.803 485.878 L 319.316 480.978 C 319.229 480.928 319.266 481.065 319.316 480.978 L 321.766 476.735 C 321.794 476.687 321.777 476.626 321.729 476.598 L 304.409 466.598 C 304.361 466.571 304.300 466.587 304.272 466.635 L 301.822 470.878 C 301.772 470.965 301.909 470.928 301.822 470.878 L 293.335 465.978 C 293.249 465.928 293.285 466.065 293.335 465.978 L 295.785 461.735 C 295.813 461.687 295.797 461.626 295.749 461.598 L 278.428 451.598 C 278.380 451.571 278.319 451.587 278.292 451.635 L 275.842 455.878 C 275.792 455.965 275.928 455.928 275.842 455.878 L 267.355 450.978 C 267.268 450.928 267.305 451.065 267.355 450.978 L 269.805 446.735 C 269.832 446.687 269.816 446.626 269.768 446.598 L 252.447 436.598 C 252.400 436.571 252.338 436.587 252.311 436.635 L 249.861 440.878 C 249.811 440.965 249.947 440.928 249.861 440.878 L 236.550 433.193 C 236.535 433.185 236.518 433.180 236.500 433.180 C 236.482 433.180 236.465 433.185 236.450 433.193 C 236.435 433.202 236.422 433.215 236.413 433.230 C 236.405 433.245 236.400 433.262 236.400 433.280 V 440.915 C 236.400 441.015 236.500 440.915 236.400 440.915 H 231.500 C 231.445 440.915 231.400 440.960 231.400 441.015 V 461.015 C 231.400 461.070 231.445 461.115 231.500 461.115 H 236.400 C 236.500 461.115 236.400 461.015 236.400 461.115 V 470.915 C 236.400 471.015 236.500 470.915 236.400 470.915 H 231.500 C 231.445 470.915 231.400 470.960 231.400 471.015 V 491.015 C 231.400 491.070 231.445 491.115 231.500 491.115 H 236.400 C 236.500 491.115 236.400 491.015 236.400 491.115 V 500.915 C 236.400 501.015 236.500 500.915 236.400 500.915 H 231.500 C 231.445 500.915 231.400 500.960 231.400 501.015 V 521.015 C 231.400 521.070 231.445 521.115 231.500 521.115 H 236.400 C 236.500 521.115 236.400 521.015 236.400 521.115 V 530.915 C 236.400 531.015 236.500 530.915 236.400 530.915 H 231.500 C 231.445 530.915 231.400 530.960 231.400 531.015 V 551.015 C 231.400 551.070 231.445 551.115 231.500 551.115 H 236.400 C 236.500 551.115 236.400 551.015 236.400 551.115 V 560.915 C 236.400 561.015 236.500 560.915 236.400 560.915 H 231.500 C 231.445 560.915 231.400 560.960 231.400 561.015 V 581.015 C 231.400 581.070 231.445 581.115 231.500 581.115 H 236.400 C 236.500 581.115 236.400 581.015 236.400 581.115 V 588.750 C 236.400 588.805 236.445 588.850 236.500 588.850 Z" stroke="rgb(0,0,0)" stroke-width="0.20" />
</g>
<g id="p-3" style="fill:none;stroke-linecap:round;stroke-linejoin:round;">
  <path d="M 450.550 595.200 H 465.550 C 465.605 595.200 465.650 595.155 465.650 595.100 V 590.200 C 465.650 590.100 465.550 590.200 465.650 590.200 H 485.450 C 485.550 590.200 485.450 590.100 485.450 590.200 V 595.100 C 485.450 595.155 485.495 595.200 485.550 595.200 H 495.550 C 495.605 595.200 495.650 595.155 495.650 595.100 V 590.200 C 495.650 590.100 495.550 590.200 495.650 590.200 H 515.450 C 515.550 590.200 515.450 590.100 515.450 590.200 V 595.100 C 515.450 595.155 515.495 595.200 515.550 595.200 H 525.550 C 525.605 595.200 525.650 595.155 525.650 595.100 V 590.200 C 525.650 590.100 525.550 590.200 525.650 590.200 H 545.450 C 545.550 590.200 545.450 590.100 545.450 590.200 V 595.100 C 545.450 595.155 545.495 595.200 545.550 595.200 H 555.550 C 555.605 595.200 555.650 595.155 555.650 595.100 V 590.200 C 555.650 590.100 555.550 590.200 555.650 590.200 H 575.450 C 575.550 590.200 575.450 590.100 575.450 590.200 V 595.100 C 575.450 595.155 575.495 595.200 575.550 595.200 H 585.550 C 585.605 595.200 585.650 595.155 585.650 595.100 V 590.200 C 585.650 590.100 585.550 590.200 585.650 590.200 H 605.450 C 605.550 590.200 605.450 590.100 605.450 590.200 V 595.100 C 605.450 595.155 605.495 595.200 605.550 595.200 H 615.550 C 615.605 595.200 615.650 595.155 615.650 595.100 V 590.200 C 615.650 590.100 615.550 590.200 615.650 590.200 H 635.450 C 635.550 590.200 635.450 590.100 635.450 590.200 V 595.100 C 635.450 595.155 635.495 595.200 635.550 595.200 H 650.550 H 655.550 C 655.605 595.200 655.650 595.155 655.650 595.100 V 590.100 V 582.600 C 655.650 582.545 655.605 582.500 655.550 582.500 H 650.650 C 650.550 582.500 650.650 582.600 650.650 582.500 V 562.700 C 650.650 562.600 650.550 562.700 650.650 562.700 H 655.550 C 655.605 562.700 655.650 562.655 655.650 562.600 V 552.600 C 655.650 552.545 655.605 552.500 655.550 552.500 H 650.650 C 650.550 552.500 650.650 552.600 650.650 552.500 V 532.700 C 650.650 532.600 650.550 532.700 650.650 532.700 H 655.550 C 655.605 532.700 655.650 532.655 655.650 532.600 V 522.600 C 655.650 522.545 655.605 522.500 655.550 522.500 H 650.650 C 650.550 522.500 650.650 522.600 650.650 522.500 V 502.700 C 650.650 502.600 650.550 502.700 650.650 502.700 H 655.550 C 655.605 502.700 655.650 502.655 655.650 502.600 V 492.600 C 655.650 492.545 655.605 492.500 655.550 492.500 H 650.650 C 650.550 492.500 650.650 492.600 650.650 492.500 V 472.700 C 650.650 472.600 650.550 472.700 650.650 472.700 H 655.550 C 655.605 472.700 655.650 472.655 655.650 472.600 V 462.600 C 655.650 462.545 655.605 462.500 655.550 462.500 H 650.650 C 650.550 462.500 650.650 462.600 650.650 462.500 V 442.700 C 650.650 442.600 650.550 442.700 650.650 442.700 H 655.550 C 655.605 442.700 655.650 442.655 655.650 442.600 V 432.600 C 655.650 432.545 655.605 432.500 655.550 432.500 H 650.650 C 650.550 432.500 650.650 432.600 650.650 432.500 V 412.700 C 650.650 412.600 650.550 412.700 650.650 412.700 H 655.550 C 655.605 412.700 655.650 412.655 655.650 412.600 V 402.600 C 655.650 402.545 655.605 402.500 655.550 402.500 H 650.650 C 650.550 402.500 650.650 402.600 650.650 402.500 V 382.700 C 650.650 382.600 650.550 382.700 650.650 382.700 H 655.550 C 655.605 382.700 655.650 382.655 655.650 382.600 V 372.600 C 655.650 372.545 655.605 372.500 655.550 372.500 H 650.650 C 650.550 372.500 650.650 372.600 650.650 372.500 V 352.700 C 650.650 352.600 650.550 352.700 650.650 352.700 H 655.550 C 655.605 352.700 655.650 352.655 655.650 352.600 V 342.600 C 655.650 342.545 655.605 342.500 655.550 342.500 H 650.650 C 650.550 342.500 650.650 342.600 650.650 342.500 V 322.700 C 650.650 322.600 650.550 322.700 650.650 322.700 H 655.550 C 655.605 322.700 655.650 322.655 655.650 322.600 V 312.600 C 655.650 312.545 655.605 312.500 655.550 312.500 H 650.650 C 650.550 312.500 650.650 312.600 650.650 312.500 V 292.700 C 650.650 292.600 650.550 292.700 650.650 292.700 H 655.550 C 655.605 292.700 655.650 292.655 655.650 292.600 V 282.600 C 655.650 282.545 655.605 282.500 655.550 282.500 H 650.650 C 650.550 282.500 650.650 282.600 650.650 282.500 V 262.700 C 650.650 262.600 650.550 262.700 650.650 262.700 H 655.550 C 655.605 262.700 655.650 262.655 655.650 262.600 V 252.600 C 655.650 252.545 655.605 252.500 655.550 252.500 H 650.650 C 650.550 252.500 650.650 252.600 650.650 252.500 V 232.700 C 650.650 232.600 650.550 232.700 650.650 232.700 H 655.550 C 655.605 232.700 655.650 232.655 655.650 232.600 V 222.600 C 655.650 222.545 655.605 222.500 655.550 222.500 H 650.650 C 650.550 222.500 650.650 222.600 650.650 222.500 V 202.700 C 650.650 202.600 650.550 202.700 650.650 202.700 H 655.550 C 655.605 202.700 655.650 202.655 655.650 202.600 V 192.600 C 655.650 192.545 655.605 192.500 655.550 192.500 H 650.650 C 650.550 192.500 650.650 192.600 650.650 192.500 V 172.700 C 650.650 172.600 650.550 172.700 650.650 172.700 H 655.550 C 655.605 172.700 655.650 172.655 655.650 172.600 V 162.600 C 655.650 162.545 655.605 162.500 655.550 162.500 H 650.650 C 650.550 162.500 650.650 162.600 650.650 162.500 V 142.700 C 650.650 142.600 650.550 142.700 650.650 142.700 H 655.550 C 655.605 142.700 655.650 142.655 655.650 142.600 V 132.600 C 655.650 132.545 655.605 132.500 655.550 132.500 H 650.650 C 650.550 132.500 650.650 132.600 650.650 132.500 V 112.700 C 650.650 112.600 650.550 112.700 650.650 112.700 H 655.550 C 655.605 112.700 655.650 112.655 655.650 112.600 V 102.600 C 655.650 102.545 655.605 102.500 655.550 102.500 H 650.650 C 650.550 102.500 650.650 102.600 650.650 102.500 V 82.700 C 650.650 82.600 650.550 82.700 650.650 82.700 H 655.550 C 655.605 82.700 655.650 82.655 655.650 82.600 V 72.600 C 655.650 72.545 655.605 72.500 655.550 72.500 H 650.650 C 650.550 72.500 650.650 72.600 650.650 72.500 V 52.700 C 650.650 52.600 650.550 52.700 650.650 52.700 H 655.550 C 655.605 52.700 655.650 52.655 655.650 52.600 V 42.600 C 655.650 42.545 655.605 42.500 655.550 42.500 H 650.650 C 650.550 42.500 650.650 42.600 650.650 42.500 V 22.700 C 650.650 22.600 650.550 22.700 650.650 22.700 H 655.550 C 655.605 22.700 655.650 22.655 655.650 22.600 V 15.100 V 10.100 C 655.650 10.045 655.605 10.000 655.550 10.000 H 650.550 H 635.550 C 635.495 10.000 635.450 10.045 635.450 10.100 V 15.000 C 635.450 15.100 635.550 15.000 635.450 15.000 H 615.650 C 615.550 15.000 615.650 15.100 615.650 15.000 V 10.100 C 615.650 10.045 615.605 10.000 615.550 10.000 H 605.550 C 605.495 10.000 605.450 10.045 605.450 10.100 V 15.000 C 605.450 15.100 605.550 15.000 605.450 15.000 H 585.650 C 585.550 15.000 585.650 15.100 585.650 15.000 V 10.100 C 585.650 10.045 585.605 10.000 585.550 10.000 H 575.550 C 575.495 10.000 575.450 10.045 575.450 10.100 V 15.000 C 575.450 15.100 575.550 15.000 575.450 15.000 H 555.650 C 555.550 15.000 555.650 15.100 555.650 15.000 V 10.100 C 555.650 10.045 555.605 10.000 555.550 10.000 H 545.550 C 545.495 10.000 545.450 10.045 545.450 10.100 V 15.000 C 545.450 15.100 545.550 15.000 545.450 15.000 H 525.650 C 525.550 15.000 525.650 15.100 525.650 15.000 V 10.100 C 525.650 10.045 525.605 10.000 525.550 10.000 H 515.550 C 515.495 10.000 515.450 10.045 515.450 10.100 V 15.000 C 515.450 15.100 515.550 15.000 515.450 15.000 H 495.650 C 495.550 15.000 495.650 15.100 495.650 15.000 V 10.100 C 495.650 10.045 495.605 10.000 495.550 10.000 H 485.550 C 485.495 10.000 485.450 10.045 485.450 10.100 V 15.000 C 485.450 15.100 485.550 15.000 485.450 15.000 H 465.650 C 465.550 15.000 465.650 15.100 465.650 15.000 V 10.100 C 465.650 10.045 465.605 10.000 465.550 10.000 H 450.550 H 445.550 C 445.495 10.000 445.450 10.045 445.450 10.100 V 15.100 V 22.600 C 445.450 22.655 445.495 22.700 445.550 22.700 H 450.450 C 450.550 22.700 450.450 22.600 450.450 22.700 V 42.500 C 450.450 42.600 450.550 42.500 450.450 42.500 H 445.550 C 445.495 42.500 445.450 42.545 445.450 42.600 V 52.600 C 445.450 52.655 445.495 52.700 445.550 52.700 H 450.450 C 450.550 52.700 450.450 52.600 450.450 52.700 V 72.500 C 450.450 72.600 450.550 72.500 450.450 72.500 H 445.550 C 445.495 72.500 445.450 72.545 445.450 72.600 V 82.600 C 445.450 82.655 445.495 82.700 445.550 82.700 H 450.450 C 450.550 82.700 450.450 82.600 450.450 82.700 V 102.500 C 450.450 102.600 450.550 102.500 450.450 102.500 H 445.550 C 445.495 102.500 445.450 102.545 445.450 102.600 V 112.600 C 445.450 112.655 445.495 112.700 445.550 112.700 H 450.450 C 450.550 112.700 450.450 112.600 450.450 112.700 V 132.500 C 450.450 132.600 450.550 132.500 450.450 132.500 H 445.550 C 445.495 132.500 445.450 132.545 445.450 132.600 V 142.600 C 445.450 142.655 445.495 142.700 445.550 142.700 H 450.450 C 450.550 142.700 450.450 142.600 450.450 142.700 V 162.500 C 450.450 162.600 450.550 162.500 450.450 162.500 H 445.550 C 445.495 162.500 445.450 162.545 445.450 162.600 V 172.600 C 445.450 172.655 445.495 172.700 445.550 172.700 H 450.450 C 450.550 172.700 450.450 172.600 450.450 172.700 V 192.500 C 450.450 192.600 450.550 192.500 450.450 192.500 H 445.550 C 445.495 192.500 445.450 192.545 445.450 192.600 V 202.600 C 445.450 202.655 445.495 202.700 445.550 202.700 H 450.450 C 450.550 202.700 450.450 202.600 450.450 202.700 V 222.500 C 450.450 222.600 450.550 222.500 450.450 222.500 H 445.550 C 445.495 222.500 445.450 222.545 445.450 222.600 V 232.600 C 445.450 232.655 445.495 232.700 445.550 232.700 H 450.450 C 450.550 232.700 450.450 232.600 450.450 232.700 V 252.500 C 450.450 252.600 450.550 252.500 450.450 252.500 H 445.550 C 445.495 252.500 445.450 252.545 445.450 252.600 V 262.600 C 445.450 262.655 445.495 262.700 445.550 262.700 H 450.450 C 450.550 262.700 450.450 262.600 450.450 262.700 V 282.500 C 450.450 282.600 450.550 282.500 450.450 282.500 H 445.550 C 445.495 282.500 445.450 282.545 445.450 282.600 V 292.600 C 445.450 292.655 445.495 292.700 445.550 292.700 H 450.450 C 450.550 292.700 450.450 292.600 450.450 292.700 V 312.500 C 450.450 312.600 450.550 312.500 450.450 312.500 H 445.550 C 445.495 312.500 445.450 312.545 445.450 312.600 V 322.600 C 445.450 322.655 445.495 322.700 445.550 322.700 H 450.450 C 450.550 322.700 450.450 322.600 450.450 322.700 V 342.500 C 450.450 342.600 450.550 342.500 450.450 342.500 H 445.550 C 445.495 342.500 445.450 342.545 445.450 342.600 V 352.600 C 445.450 352.655 445.495 352.700 445.550 352.700 H 450.450 C 450.550 352.700 450.450 352.600 450.450 352.700 V 372.500 C 450.450 372.600 450.550 372.500 450.450 372.500 H 445.550 C 445.495 372.500 445.450 372.545 445.450 372.600 V 382.600 C 445.450 382.655 445.495 382.700 445.550 382.700 H 450.450 C 450.550 382.700 450.450 382.600 450.450 382.700 V 402.500 C 450.450 402.600 450.550 402.500 450.450 402.500 H 445.550 C 445.495 402.500 445.450 402.545 445.450 402.600 V 412.600 C 445.450 412.655 445.495 412.700 445.550 412.700 H 450.450 C 450.550 412.700 450.450 412.600 450.450 412.700 V 432.500 C 450.450 432.600 450.550 432.500 450.450 432.500 H 445.550 C 445.495 432.500 445.450 432.545 445.450 432.600 V 442.600 C 445.450 442.655 445.495 442.700 445.550 442.700 H 450.450 C 450.550 442.700 450.450 442.600 450.450 442.700 V 462.500 C 450.450 462.600 450.550 462.500 450.450 462.500 H 445.550 C 445.495 462.500 445.450 462.545 445.450 462.600 V 472.600 C 445.450 472.655 445.495 472.700 445.550 472.700 H 450.450 C 450.550 472.700 450.450 472.600 450.450 472.700 V 492.500 C 450.450 492.600 450.550 492.500 450.450 492.500 H 445.550 C 445.495 492.500 445.450 492.545 445.450 492.600 V 502.600 C 445.450 502.655 445.495 502.700 445.550 502.700 H 450.450 C 450.550 502.700 450.450 502.600 450.450 502.700 V 522.500 C 450.450 522.600 450.550 522.500 450.450 522.500 H 445.550 C 445.495 522.500 445.450 522.545 445.450 522.600 V 532.600 C 445.450 532.655 445.495 532.700 445.550 532.700 H 450.450 C 450.550 532.700 450.450 532.600 450.450 532.700 V 552.500 C 450.450 552.600 450.550 552.500 450.450 552.500 H 445.550 C 445.495 552.500 445.450 552.545 445.450 552.600 V 562.600 C 445.450 562.655 445.495 562.700 445.550 562.700 H 450.450 C 450.550 562.700 450.450 562.600 450.450 562.700 V 582.500 C 450.450 582.600 450.550 582.500 450.450 582.500 H 445.550 C 445.495 582.500 445.450 582.545 445.450 582.600 V 590.100 V 595.100 C 445.450 595.155 445.495 595.200 445.550 595.200 H 450.550 Z" stroke="rgb(0,0,0)" stroke-width="0.20" />
  <path d="M 665.950 595.200 H 675.950 C 676.005 595.200 676.050 595.155 676.050 595.100 V 590.200 C 676.050 590.100 675.950 590.200 676.050 590.200 H 695.850 C 695.950 590.200 695.850 590.100 695.850 590.200 V 595.100 C 695.850 595.155 695.895 595.200 695.950 595.200 H 705.950 H 704.507 C 704.562 595.200 704.607 595.155 704.607 595.100 V 590.100 V 582.700 C 704.607 582.600 704.507 582.700 704.607 582.700 H 708.837 C 708.892 582.700 708.937 582.655 708.937 582.600 V 562.600 C 708.937 562.545 708.892 562.500 708.837 562.500 H 704.607 C 704.507 562.500 704.607 562.600 704.607 562.500 V 552.700 C 704.607 552.600 704.507 552.700 704.607 552.700 H 708.837 C 708.892 552.700 708.937 552.655 708.937 552.600 V 532.600 C 708.937 532.545 708.892 532.500 708.837 532.500 H 704.607 C 704.507 532.500 704.607 532.600 704.607 532.500 V 522.700 C 704.607 522.600 704.507 522.700 704.607 522.700 H 708.837 C 708.892 522.700 708.937 522.655 708.937 522.600 V 502.600 C 708.937 502.545 708.892 502.500 708.837 502.500 H 704.607 C 704.507 502.500 704.607 502.600 704.607 502.500 V 492.700 C 704.607 492.600 704.507 492.700 704.607 492.700 H 708.837 C 708.892 492.700 708.937 492.655 708.937 492.600 V 472.600 C 708.937 472.545 708.892 472.500 708.837 472.500 H 704.607 C 704.507 472.500 704.607 472.600 704.607 472.500 V 462.700 C 704.607 462.600 704.507 462.700 704.607 462.700 H 708.837 C 708.892 462.700 708.937 462.655 708.937 462.600 V 442.600 C 708.937 442.545 708.892 442.500 708.837 442.500 H 704.607 C 704.507 442.500 704.607 442.600 704.607 442.500 V 432.700 C 704.607 432.600 704.507 432.700 704.607 432.700 H 708.837 C 708.892 432.700 708.937 432.655 708.937 432.600 V 412.600 C 708.937 412.545 708.892 412.500 708.837 412.500 H 704.607 C 704.507 412.500 704.607 412.600 704.607 412.500 V 402.700 C 704.607 402.600 704.507 402.700 704.607 402.700 H 708.837 C 708.892 402.700 708.937 402.655 708.937 402.600 V 382.600 C 708.937 382.545 708.892 382.500 708.837 382.500 H 704.607 C 704.507 382.500 704.607 382.600 704.607 382.500 V 372.700 C 704.607 372.600 704.507 372.700 704.607 372.700 H 708.837 C 708.892 372.700 708.937 372.655 708.937 372.600 V 352.600 C 708.937 352.545 708.892 352.500 708.837 352.500 H 704.607 C 704.507 352.500 704.607 352.600 704.607 352.500 V 342.700 C 704.607 342.600 704.507 342.700 704.607 342.700 H 708.837 C 708.892 342.700 708.937 342.655 708.937 342.600 V 322.600 C 708.937 322.545 708.892 322.500 708.837 322.500 H 704.607 C 704.507 322.500 704.607 322.600 704.607 322.500 V 312.700 C 704.607 312.600 704.507 312.700 704.607 312.700 H 708.837 C 708.892 312.700 708.937 312.655 708.937 312.600 V 292.600 C 708.937 292.545 708.892 292.500 708.837 292.500 H 704.607 C 704.507 292.500 704.607 292.600 704.607 292.500 V 282.700 C 704.607 282.600 704.507 282.700 704.607 282.700 H 708.837 C 708.892 282.700 708.937 282.655 708.937 282.600 V 262.600 C 708.937 262.545 708.892 262.500 708.837 262.500 H 704.607 C 704.507 262.500 704.607 262.600 704.607 262.500 V 252.700 C 704.607 252.600 704.507 252.700 704.607 252.700 H 708.837 C 708.892 252.700 708.937 252.655 708.937 252.600 V 232.600 C 708.937 232.545 708.892 232.500 708.837 232.500 H 704.607 C 704.507 232.500 704.607 232.600 704.607 232.500 V 222.700 C 704.607 222.600 704.507 222.700 704.607 222.700 H 708.837 C 708.892 222.700 708.937 222.655 708.937 222.600 V 202.600 C 708.937 202.545 708.892 202.500 708.837 202.500 H 704.607 C 704.507 202.500 704.607 202.600 704.607 202.500 V 192.700 C 704.607 192.600 704.507 192.700 704.607 192.700 H 708.837 C 708.892 192.700 708.937 192.655 708.937 192.600 V 172.600 C 708.937 172.545 708.892 172.500 708.837 172.500 H 704.607 C 704.507 172.500 704.607 172.600 704.607 172.500 V 162.700 C 704.607 162.600 704.507 162.700 704.607 162.700 H 708.837 C 708.892 162.700 708.937 162.655 708.937 162.600 V 142.600 C 708.937 142.545 708.892 142.500 708.837 142.500 H 704.607 C 704.507 142.500 704.607 142.600 704.607 142.500 V 132.700 C 704.607 132.600 704.507 132.700 704.607 132.700 H 708.837 C 708.892 132.700 708.937 132.655 708.937 132.600 V 112.600 C 708.937 112.545 708.892 112.500 708.837 112.500 H 704.607 C 704.507 112.500 704.607 112.600 704.607 112.500 V 102.700 C 704.607 102.600 704.507 102.700 704.607 102.700 H 708.837 C 708.892 102.700 708.937 102.655 708.937 102.600 V 82.600 C 708.937 82.545 708.892 82.500 708.837 82.500 H 704.607 C 704.507 82.500 704.607 82.600 704.607 82.500 V 72.700 C 704.607 72.600 704.507 72.700 704.607 72.700 H 708.837 C 708.892 72.700 708.937 72.655 708.937 72.600 V 52.600 C 708.937 52.545 708.892 52.500 708.837 52.500 H 704.607 C 704.507 52.500 704.607 52.600 704.607 52.500 V 42.700 C 704.607 42.600 704.507 42.700 704.607 42.700 H 708.837 C 708.892 42.700 708.937 42.655 708.937 42.600 V 22.600 C 708.937 22.545 708.892 22.500 708.837 22.500 H 704.607 C 704.507 22.500 704.607 22.600 704.607 22.500 V 15.100 V 10.100 C 704.607 10.045 704.562 10.000 704.507 10.000 H 705.950 H 695.950 C 695.895 10.000 695.850 10.045 695.850 10.100 V 15.000 C 695.850 15.100 695.950 15.000 695.850 15.000 H 676.050 C 675.950 15.000 676.050 15.100 676.050 15.000 V 10.100 C 676.050 10.045 676.005 10.000 675.950 10.000 H 665.950 C 665.895 10.000 665.850 10.045 665.850 10.100 V 15.100 V 22.500 C 665.850 22.600 665.950 22.500 665.850 22.500 H 660.950 C 660.895 22.500 660.850 22.545 660.850 22.600 V 42.600 C 660.850 42.655 660.895 42.700 660.950 42.700 H 665.850 C 665.950 42.700 665.850 42.600 665.850 42.700 V 52.500 C 665.850 52.600 665.950 52.500 665.850 52.500 H 660.950 C 660.895 52.500 660.850 52.545 660.850 52.600 V 72.600 C 660.850 72.655 660.895 72.700 660.950 72.700 H 665.850 C 665.950 72.700 665.850 72.600 665.850 72.700 V 82.500 C 665.850 82.600 665.950 82.500 665.850 82.500 H 660.950 C 660.895 82.500 660.850 82.545 660.850 82.600 V 102.600 C 660.850 102.655 660.895 102.700 660.950 102.700 H 665.850 C 665.950 102.700 665.850 102.600 665.850 102.700 V 112.500 C 665.850 112.600 665.950 112.500 665.850 112.500 H 660.950 C 660.895 112.500 660.850 112.545 660.850 112.600 V 132.600 C 660.850 132.655 660.895 132.700 660.950 132.700 H 665.850 C 665.950 132.700 665.850 132.600 665.850 132.700 V 142.500 C 665.850 142.600 665.950 142.500 665.850 142.500 H 660.950 C 660.895 142.500 660.850 142.545 660.850 142.600 V 162.600 C 660.850 162.655 660.895 162.700 660.950 162.700 H 665.850 C 665.950 162.700 665.850 162.600 665.850 162.700 V 172.500 C 665.850 172.600 665.950 172.500 665.850 172.500 H 660.950 C 660.895 172.500 660.850 172.545 660.850 172.600 V 192.600 C 660.850 192.655 660.895 192.700 660.950 192.700 H 665.850 C 665.950 192.700 665.850 192.600 665.850 192.700 V 202.500 C 665.850 202.600 665.950 202.500 665.850 202.500 H 660.950 C 660.895 202.500 660.850 202.545 660.850 202.600 V 222.600 C 660.850 222.655 660.895 222.700 660.950 222.700 H 665.850 C 665.950 222.700 665.850 222.600 665.850 222.700 V 232.500 C 665.850 232.600 665.950 232.500 665.850 232.500 H 660.950 C 660.895 232.500 660.850 232.545 660.850 232.600 V 252.600 C 660.850 252.655 660.895 252.700 660.950 252.700 H 665.850 C 665.950 252.700 665.850 252.600 665.850 252.700 V 262.500 C 665.850 262.600 665.950 262.500 665.850 262.500 H 660.950 C 660.895 262.500 660.850 262.545 660.850 262.600 V 282.600 C 660.850 282.655 660.895 282.700 660.950 282.700 H 665.850 C 665.950 282.700 665.850 282.600 665.850 282.700 V 292.500 C 665.850 292.600 665.950 292.500 665.850 292.500 H 660.950 C 660.895 292.500 660.850 292.545 660.850 292.600 V 312.600 C 660.850 312.655 660.895 312.700 660.950 312.700 H 665.850 C 665.950 312.700 665.850 312.600 665.850 312.700 V 322.500 C 665.850 322.600 665.950 322.500 665.850 322.500 H 660.950 C 660.895 322.500 660.850 322.545 660.850 322.600 V 342.600 C 660.850 342.655 660.895 342.700 660.950 342.700 H 665.850 C 665.950 342.700 665.850 342.600 665.850 342.700 V 352.500 C 665.850 352.600 665.950 352.500 665.850 352.500 H 660.950 C 660.895 352.500 660.850 352.545 660.850 352.600 V 372.600 C 660.850 372.655 660.895 372.700 660.950 372.700 H 665.850 C 665.950 372.700 665.850 372.600 665.850 372.700 V 382.500 C 665.850 382.600 665.950 382.500 665.850 382.500 H 660.950 C 660.895 382.500 660.850 382.545 660.850 382.600 V 402.600 C 660.850 402.655 660.895 402.700 660.950 402.700 H 665.850 C 665.950 402.700 665.850 402.600 665.850 402.700 V 412.500 C 665.850 412.600 665.950 412.500 665.850 412.500 H 660.950 C 660.895 412.500 660.850 412.545 660.850 412.600 V 432.600 C 660.850 432.655 660.895 432.700 660.950 432.700 H 665.850 C 665.950 432.700 665.850 432.600 665.850 432.700 V 442.500 C 665.850 442.600 665.950 442.500 665.850 442.500 H 660.950 C 660.895 442.500 660.850 442.545 660.850 442.600 V 462.600 C 660.850 462.655 660.895 462.700 660.950 462.700 H 665.850 C 665.950 462.700 665.850 462.600 665.850 462.700 V 472.500 C 665.850 472.600 665.950 472.500 665.850 472.500 H 660.950 C 660.895 472.500 660.850 472.545 660.850 472.600 V 492.600 C 660.850 492.655 660.895 492.700 660.950 492.700 H 665.850 C 665.950 492.700 665.850 492.600 665.850 492.700 V 502.500 C 665.850 502.600 665.950 502.500 665.850 502.500 H 660.950 C 660.895 502.500 660.850 502.545 660.850 502.600 V 522.600 C 660.850 522.655 660.895 522.700 660.950 522.700 H 665.850 C 665.950 522.700 665.850 522.600 665.850 522.700 V 532.500 C 665.850 532.600 665.950 532.500 665.850 532.500 H 660.950 C 660.895 532.500 660.850 532.545 660.850 532.600 V 552.600 C 660.850 552.655 660.895 552.700 660.950 552.700 H 665.850 C 665.950 552.700 665.850 552.600 665.850 552.700 V 562.500 C 665.850 562.600 665.950 562.500 665.850 562.500 H 660.950 C 660.895 562.500 660.850 562.545 660.850 562.600 V 582.600 C 660.850 582.655 660.895 582.700 660.950 582.700 H 665.850 C 665.950 582.700 665.850 582.600 665.850 582.700 V 590.100 V 595.100 C 665.850 595.155 665.895 595.200 665.950 595.200 Z" stroke="rgb(0,0,0)" stroke-width="0.20" />
  <path d="M 719.237 595.200 H 734.707 C 734.762 595.200 734.807 595.155 734.807 595.100 V 590.200 C 734.807 590.100 734.707 590.200 734.807 590.200 H 754.607 C 754.707 590.200 754.607 590.100 754.607 590.200 V 595.100 C 754.607 595.155 754.652 595.200 754.707 595.200 H 764.707 C 764.762 595.200 764.807 595.155 764.807 595.100 V 590.200 C 764.807 590.100 764.707 590.200 764.807 590.200 H 784.607 C 784.707 590.200 784.607 590.100 784.607 590.200 V 595.100 C 784.607 595.155 784.652 595.200 784.707 595.200 H 794.707 C 794.762 595.200 794.807 595.155 794.807 595.100 V 590.200 C 794.807 590.100 794.707 590.200 794.807 590.200 H 814.607 C 814.707 590.200 814.607 590.100 814.607 590.200 V 595.100 C 814.607 595.155 814.652 595.200 814.707 595.200 H 824.707 C 824.762 595.200 824.807 595.155 824.807 595.100 V 590.200 C 824.807 590.100 824.707 590.200 824.807 590.200 H 844.607 C 844.707 590.200 844.607 590.100 844.607 590.200 V 595.100 C 844.607 595.155 844.652 595.200 844.707 595.200 H 854.707 C 854.762 595.200 854.807 595.155 854.807 595.100 V 590.200 C 854.807 590.100 854.707 590.200 854.807 590.200 H 874.607 C 874.707 590.200 874.607 590.100 874.607 590.200 V 595.100 C 874.607 595.155 874.652 595.200 874.707 595.200 H 884.707 C 884.762 595.200 884.807 595.155 884.807 595.100 V 590.200 C 884.807 590.100 884.707 590.200 884.807 590.200 H 904.607 C 904.707 590.200 904.607 590.100 904.607 590.200 V 595.100 C 904.607 595.155 904.652 595.200 904.707 595.200 H 914.707 C 914.762 595.200 914.807 595.155 914.807 595.100 V 590.200 C 914.807 590.100 914.707 590.200 914.807 590.200 H 934.607 C 934.707 590.200 934.607 590.100 934.607 590.200 V 595.100 C 934.607 595.155 934.652 595.200 934.707 595.200 H 950.177 H 955.177 C 955.232 595.200 955.277 595.155 955.277 595.100 V 590.100 V 582.600 C 955.277 582.545 955.232 582.500 955.177 582.500 H 950.277 C 950.177 582.500 950.277 582.600 950.277 582.500 V 562.700 C 950.277 562.600 950.177 562.700 950.277 562.700 H 955.177 C 955.232 562.700 955.277 562.655 955.277 562.600 V 552.600 C 955.277 552.545 955.232 552.500 955.177 552.500 H 950.277 C 950.177 552.500 950.277 552.600 950.277 552.500 V 532.700 C 950.277 532.600 950.177 532.700 950.277 532.700 H 955.177 C 955.232 532.700 955.277 532.655 955.277 532.600 V 522.600 C 955.277 522.545 955.232 522.500 955.177 522.500 H 950.277 C 950.177 522.500 950.277 522.600 950.277 522.500 V 502.700 C 950.277 502.600 950.177 502.700 950.277 502.700 H 955.177 C 955.232 502.700 955.277 502.655 955.277 502.600 V 492.600 C 955.277 492.545 955.232 492.500 955.177 492.500 H 950.277 C 950.177 492.500 950.277 492.600 950.277 492.500 V 472.700 C 950.277 472.600 950.177 472.700 950.277 472.700 H 955.177 C 955.232 472.700 955.277 472.655 955.277 472.600 V 462.600 C 955.277 462.545 955.232 462.500 955.177 462.500 H 950.277 C 950.177 462.500 950.277 462.600 950.277 462.500 V 442.700 C 950.277 442.600 950.177 442.700 950.277 442.700 H 955.177 C 955.232 442.700 955.277 442.655 955.277 442.600 V 432.600 C 955.277 432.545 955.232 432.500 955.177 432.500 H 950.277 C 950.177 432.500 950.277 432.600 950.277 432.500 V 412.700 C 950.277 412.600 950.177 412.700 950.277 412.700 H 955.177 C 955.232 412.700 955.277 412.655 955.277 412.600 V 402.600 C 955.277 402.545 955.232 402.500 955.177 402.500 H 950.277 C 950.177 402.500 950.277 402.600 950.277 402.500 V 382.700 C 950.277 382.600 950.177 382.700 950.277 382.700 H 955.177 C 955.232 382.700 955.277 382.655 955.277 382.600 V 372.600 C 955.277 372.545 955.232 372.500 955.177 372.500 H 950.277 C 950.177 372.500 950.277 372.600 950.277 372.500 V 352.700 C 950.277 352.600 950.177 352.700 950.277 352.700 H 955.177 C 955.232 352.700 955.277 352.655 955.277 352.600 V 342.600 C 955.277 342.545 955.232 342.500 955.177 342.500 H 950.277 C 950.177 342.500 950.277 342.600 950.277 342.500 V 322.700 C 950.277 322.600 950.177 322.700 950.277 322.700 H 955.177 C 955.232 322.700 955.277 322.655 955.277 322.600 V 312.600 C 955.277 312.545 955.232 312.500 955.177 312.500 H 950.277 C 950.177 312.500 950.277 312.600 950.277 312.500 V 292.700 C 950.277 292.600 950.177 292.700 950.277 292.700 H 955.177 C 955.232 292.700 955.277 292.655 955.277 292.600 V 282.600 C 955.277 282.545 955.232 282.500 955.177 282.500 H 950.277 C 950.177 282.500 950.277 282.600 950.277 282.500 V 262.700 C 950.277 262.600 950.177 262.700 950.277 262.700 H 955.177 C 955.232 262.700 955.277 262.655 955.277 262.600 V 252.600 C 955.277 252.545 955.232 252.500 955.177 252.500 H 950.277 C 950.177 252.500 950.277 252.600 950.277 252.500 V 232.700 C 950.277 232.600 950.177 232.700 950.277 232.700 H 955.177 C 955.232 232.700 955.277 232.655 955.277 232.600 V 222.600 C 955.277 222.545 955.232 222.500 955.177 222.500 H 950.277 C 950.177 222.500 950.277 222.600 950.277 222.500 V 202.700 C 950.277 202.600 950.177 202.700 950.277 202.700 H 955.177 C 955.232 202.700 955.277 202.655 955.277 202.600 V 192.600 C 955.277 192.545 955.232 192.500 955.177 192.500 H 950.277 C 950.177 192.500 950.277 192.600 950.277 192.500 V 172.700 C 950.277 172.600 950.177 172.700 950.277 172.700 H 955.177 C 955.232 172.700 955.277 172.655 955.277 172.600 V 162.600 C 955.277 162.545 955.232 162.500 955.177 162.500 H 950.277 C 950.177 162.500 950.277 162.600 950.277 162.500 V 142.700 C 950.277 142.600 950.177 142.700 950.277 142.700 H 955.177 C 955.232 142.700 955.277 142.655 955.277 142.600 V 132.600 C 955.277 132.545 955.232 132.500 955.177 132.500 H 950.277 C 950.177 132.500 950.277 132.600 950.277 132.500 V 112.700 C 950.277 112.600 950.177 112.700 950.277 112.700 H 955.177 C 955.232 112.700 955.277 112.655 955.277 112.600 V 102.600 C 955.277 102.545 955.232 102.500 955.177 102.500 H 950.277 C 950.177 102.500 950.277 102.600 950.277 102.500 V 82.700 C 950.277 82.600 950.177 82.700 950.277 82.700 H 955.177 C 955.232 82.700 955.277 82.655 955.277 82.600 V 72.600 C 955.277 72.545 955.232 72.500 955.177 72.500 H 950.277 C 950.177 72.500 950.277 72.600 950.277 72.500 V 52.700 C 950.277 52.600 950.177 52.700 950.277 52.700 H 955.177 C 955.232 52.700 955.277 52.655 955.277 52.600 V 42.600 C 955.277 42.545 955.232 42.500 955.177 42.500 H 950.277 C 950.177 42.500 950.277 42.600 950.277 42.500 V 22.700 C 950.277 22.600 950.177 22.700 950.277 22.700 H 955.177 C 955.232 22.700 955.277 22.655 955.277 22.600 V 15.100 V 10.100 C 955.277 10.045 955.232 10.000 955.177 10.000 H 950.177 H 934.707 C 934.652 10.000 934.607 10.045 934.607 10.100 V 15.000 C 934.607 15.100 934.707 15.000 934.607 15.000 H 914.807 C 914.707 15.000 914.807 15.100 914.807 15.000 V 10.100 C 914.807 10.045 914.762 10.000 914.707 10.000 H 904.707 C 904.652 10.000 904.607 10.045 904.607 10.100 V 15.000 C 904.607 15.100 904.707 15.000 904.607 15.000 H 884.807 C 884.707 15.000 884.807 15.100 884.807 15.000 V 10.100 C 884.807 10.045 884.762 10.000 884.707 10.000 H 874.707 C 874.652 10.000 874.607 10.045 874.607 10.100 V 15.000 C 874.607 15.100 874.707 15.000 874.607 15.000 H 854.807 C 854.707 15.000 854.807 15.100 854.807 15.000 V 10.100 C 854.807 10.045 854.762 10.000 854.707 10.000 H 844.707 C 844.652 10.000 844.607 10.045 844.607 10.100 V 15.000 C 844.607 15.100 844.707 15.000 844.607 15.000 H 824.807 C 824.707 15.000 824.807 15.100 824.807 15.000 V 10.100 C 824.807 10.045 824.762 10.000 824.707 10.000 H 814.707 C 814.652 10.000 814.607 10.045 814.607 10.100 V 15.000 C 814.607 15.100 814.707 15.000 814.607 15.000 H 794.807 C 794.707 15.000 794.807 15.100 794.807 15.000 V 10.100 C 794.807 10.045 794.762 10.000 794.707 10.000 H 784.707 C 784.652 10.000 784.607 10.045 784.607 10.100 V 15.000 C 784.607 15.100 784.707 15.000 784.607 15.000 H 764.807 C 764.707 15.000 764.807 15.100 764.807 15.000 V 10.100 C 764.807 10.045 764.762 10.000 764.707 10.000 H 754.707 C 754.652 10.000 754.607 10.045 754.607 10.100 V 15.000 C 754.607 15.100 754.707 15.000 754.607 15.000 H 734.807 C 734.707 15.000 734.807 15.100 734.807 15.000 V 10.100 C 734.807 10.045 734.762 10.000 734.707 10.000 H 719.237 H 716.350 C 716.295 10.000 716.250 10.045 716.250 10.100 V 15.100 V 22.600 C 716.250 22.655 716.295 22.700 716.350 22.700 H 720.580 C 720.680 22.700 720.580 22.600 720.580 22.700 V 42.500 C 720.580 42.600 720.680 42.500 720.580 42.500 H 716.350 C 716.295 42.500 716.250 42.545 716.250 42.600 V 52.600 C 716.250 52.655 716.295 52.700 716.350 52.700 H 720.580 C 720.680 52.700 720.580 52.600 720.580 52.700 V 72.500 C 720.580 72.600 720.680 72.500 720.580 72.500 H 716.350 C 716.295 72.500 716.250 72.545 716.250 72.600 V 82.600 C 716.250 82.655 716.295 82.700 716.350 82.700 H 720.580 C 720.680 82.700 720.580 82.600 720.580 82.700 V 102.500 C 720.580 102.600 720.680 102.500 720.580 102.500 H 716.350 C 716.295 102.500 716.250 102.545 716.250 102.600 V 112.600 C 716.250 112.655 716.295 112.700 716.350 112.700 H 720.580 C 720.680 112.700 720.580 112.600 720.580 112.700 V 132.500 C 720.580 132.600 720.680 132.500 720.580 132.500 H 716.350 C 716.295 132.500 716.250 132.545 716.250 132.600 V 142.600 C 716.250 142.655 716.295 142.700 716.350 142.700 H 720.580 C 720.680 142.700 720.580 142.600 720.580 142.700 V 162.500 C 720.580 162.600 720.680 162.500 720.580 162.500 H 716.350 C 716.295 162.500 716.250 162.545 716.250 162.600 V 172.600 C 716.250 172.655 716.295 172.700 716.350 172.700 H 720.580 C 720.680 172.700 720.580 172.600 720.580 172.700 V 192.500 C 720.580 192.600 720.680 192.500 720.580 192.500 H 716.350 C 716.295 192.500 716.250 192.545 716.250 192.600 V 202.600 C 716.250 202.655 716.295 202.700 716.350 202.700 H 720.580 C 720.680 202.700 720.580 202.600 720.580 202.700 V 222.500 C 720.580 222.600 720.680 222.500 720.580 222.500 H 716.350 C 716.295 222.500 716.250 222.545 716.250 222.600 V 232.600 C 716.250 232.655 716.295 232.700 716.350 232.700 H 720.580 C 720.680 232.700 720.580 232.600 720.580 232.700 V 252.500 C 720.580 252.600 720.680 252.500 720.580 252.500 H 716.350 C 716.295 252.500 716.250 252.545 716.250 252.600 V 262.600 C 716.250 262.655 716.295 262.700 716.350 262.700 H 720.580 C 720.680 262.700 720.580 262.600 720.580 262.700 V 282.500 C 720.580 282.600 720.680 282.500 720.580 282.500 H 716.350 C 716.295 282.500 716.250 282.545 716.250 282.600 V 292.600 C 716.250 292.655 716.295 292.700 716.350 292.700 H 720.580 C 720.680 292.700 720.580 292.600 720.580 292.700 V 312.500 C 720.580 312.600 720.680 312.500 720.580 312.500 H 716.350 C 716.295 312.500 716.250 312.545 716.250 312.600 V 322.600 C 716.250 322.655 716.295 322.700 716.350 322.700 H 720.580 C 720.680 322.700 720.580 322.600 720.580 322.700 V 342.500 C 720.580 342.600 720.680 342.500 720.580 342.500 H 716.350 C 716.295 342.500 716.250 342.545 716.250 342.600 V 352.600 C 716.250 352.655 716.295 352.700 716.350 352.700 H 720.580 C 720.680 352.700 720.580 352.600 720.580 352.700 V 372.500 C 720.580 372.600 720.680 372.500 720.580 372.500 H 716.350 C 716.295 372.500 716.250 372.545 716.250 372.600 V 382.600 C 716.250 382.655 716.295 382.700 716.350 382.700 H 720.580 C 720.680 382.700 720.580 382.600 720.580 382.700 V 402.500 C 720.580 402.600 720.680 402.500 720.580 402.500 H 716.350 C 716.295 402.500 716.250 402.545 716.250 402.600 V 412.600 C 716.250 412.655 716.295 412.700 716.350 412.700 H 720.580 C 720.680 412.700 720.580 412.600 720.580 412.700 V 432.500 C 720.580 432.600 720.680 432.500 720.580 432.500 H 716.350 C 716.295 432.500 716.250 432.545 716.250 432.600 V 442.600 C 716.250 442.655 716.295 442.700 716.350 442.700 H 720.580 C 720.680 442.700 720.580 442.600 720.580 442.700 V 462.500 C 720.580 462.600 720.680 462.500 720.580 462.500 H 716.350 C 716.295 462.500 716.250 462.545 716.250 462.600 V 472.600 C 716.250 472.655 716.295 472.700 716.350 472.700 H 720.580 C 720.680 472.700 720.580 472.600 720.580 472.700 V 492.500 C 720.580 492.600 720.680 492.500 720.580 492.500 H 716.350 C 716.295 492.500 716.250 492.545 716.250 492.600 V 502.600 C 716.250 502.655 716.295 502.700 716.350 502.700 H 720.580 C 720.680 502.700 720.580 502.600 720.580 502.700 V 522.500 C 720.580 522.600 720.680 522.500 720.580 522.500 H 716.350 C 716.295 522.500 716.250 522.545 716.250 522.600 V 532.600 C 716.250 532.655 716.295 532.700 716.350 532.700 H 720.580 C 720.680 532.700 720.580 532.600 720.580 532.700 V 552.500 C 720.580 552.600 720.680 552.500 720.580 552.500 H 716.350 C 716.295 552.500 716.250 552.545 716.250 552.600 V 562.600 C 716.250 562.655 716.295 562.700 716.350 562.700 H 720.580 C 720.680 562.700 720.580 562.600 720.580 562.700 V 582.500 C 720.580 582.600 720.680 582.500 720.580 582.500 H 716.350 C 716.295 582.500 716.250 582.545 716.250 582.600 V 590.100 V 595.100 C 716.250 595.155 716.295 595.200 716.350 595.200 H 719.237 Z" stroke="rgb(0,0,0)" stroke-width="0.20" />
  <path d="M 963.464 595.200 H 971.199 C 971.254 595.200 971.299 595.155 971.299 595.100 V 590.200 C 971.299 590.100 971.199 590.200 971.299 590.200 H 991.099 C 991.199 590.200 991.099 590.100 991.099 590.200 V 595.100 C 991.099 595.155 991.143 595.200 991.199 595.200 H 1001.199 C 1001.254 595.200 1001.299 595.155 1001.299 595.100 V 590.200 C 1001.299 590.100 1001.199 590.200 1001.299 590.200 H 1021.099 C 1021.199 590.200 1021.099 590.100 1021.099 590.200 V 595.100 C 1021.099 595.155 1021.143 595.200 1021.199 595.200 H 1031.199 C 1031.254 595.200 1031.299 595.155 1031.299 595.100 V 590.200 C 1031.299 590.100 1031.199 590.200 1031.299 590.200 H 1051.099 C 1051.199 590.200 1051.099 590.100 1051.099 590.200 V 595.100 C 1051.099 595.155 1051.143 595.200 1051.199 595.200 H 1061.199 C 1061.254 595.200 1061.299 595.155 1061.299 595.100 V 590.200 C 1061.299 590.100 1061.199 590.200 1061.299 590.200 H 1081.099 C 1081.199 590.200 1081.099 590.100 1081.099 590.200 V 595.100 C 1081.099 595.155 1081.143 595.200 1081.199 595.200 H 1091.199 C 1091.254 595.200 1091.299 595.155 1091.299 595.100 V 590.200 C 1091.299 590.100 1091.199 590.200 1091.299 590.200 H 1111.099 C 1111.199 590.200 1111.099 590.100 1111.099 590.200 V 595.100 C 1111.099 595.155 1111.143 595.200 1111.199 595.200 H 1118.934 C 1118.989 595.200 1119.034 595.155 1119.034 595.100 V 590.100 V 582.700 C 1119.034 582.600 1118.934 582.700 1119.034 582.700 H 1123.934 C 1123.989 582.700 1124.034 582.655 1124.034 582.600 V 562.600 C 1124.034 562.545 1123.989 562.500 1123.934 562.500 H 1119.034 C 1118.934 562.500 1119.034 562.600 1119.034 562.500 V 552.700 C 1119.034 552.600 1118.934 552.700 1119.034 552.700 H 1123.934 C 1123.989 552.700 1124.034 552.655 1124.034 552.600 V 532.600 C 1124.034 532.545 1123.989 532.500 1123.934 532.500 H 1119.034 C 1118.934 532.500 1119.034 532.600 1119.034 532.500 V 522.700 C 1119.034 522.600 1118.934 522.700 1119.034 522.700 H 1123.934 C 1123.989 522.700 1124.034 522.655 1124.034 522.600 V 502.600 C 1124.034 502.545 1123.989 502.500 1123.934 502.500 H 1119.034 C 1118.934 502.500 1119.034 502.600 1119.034 502.500 V 492.700 C 1119.034 492.600 1118.934 492.700 1119.034 492.700 H 1123.934 C 1123.989 492.700 1124.034 492.655 1124.034 492.600 V 472.600 C 1124.034 472.545 1123.989 472.500 1123.934 472.500 H 1119.034 C 1118.934 472.500 1119.034 472.600 1119.034 472.500 V 462.700 C 1119.034 462.600 1118.934 462.700 1119.034 462.700 H 1123.934 C 1123.989 462.700 1124.034 462.655 1124.034 462.600 V 442.600 C 1124.034 442.545 1123.989 442.500 1123.934 442.500 H 1119.034 C 1118.934 442.500 1119.034 442.600 1119.034 442.500 V 432.700 C 1119.034 432.600 1118.934 432.700 1119.034 432.700 H 1123.934 C 1123.989 432.700 1124.034 432.655 1124.034 432.600 V 412.600 C 1124.034 412.545 1123.989 412.500 1123.934 412.500 H 1119.034 C 1118.934 412.500 1119.034 412.600 1119.034 412.500 V 402.700 C 1119.034 402.600 1118.934 402.700 1119.034 402.700 H 1123.934 C 1123.989 402.700 1124.034 402.655 1124.034 402.600 V 382.600 C 1124.034 382.545 1123.989 382.500 1123.934 382.500 H 1119.034 C 1118.934 382.500 1119.034 382.600 1119.034 382.500 V 372.700 C 1119.034 372.600 1118.934 372.700 1119.034 372.700 H 1123.934 C 1123.989 372.700 1124.034 372.655 1124.034 372.600 V 352.600 C 1124.034 352.545 1123.989 352.500 1123.934 352.500 H 1119.034 C 1118.934 352.500 1119.034 352.600 1119.034 352.500 V 342.700 C 1119.034 342.600 1118.934 342.700 1119.034 342.700 H 1123.934 C 1123.989 342.700 1124.034 342.655 1124.034 342.600 V 322.600 C 1124.034 322.545 1123.989 322.500 1123.934 322.500 H 1119.034 C 1118.934 322.500 1119.034 322.600 1119.034 322.500 V 312.700 C 1119.034 312.600 1118.934 312.700 1119.034 312.700 H 1123.934 C 1123.989 312.700 1124.034 312.655 1124.034 312.600 V 292.600 C 1124.034 292.545 1123.989 292.500 1123.934 292.500 H 1119.034 C 1118.934 292.500 1119.034 292.600 1119.034 292.500 V 282.700 C 1119.034 282.600 1118.934 282.700 1119.034 282.700 H 1123.934 C 1123.989 282.700 1124.034 282.655 1124.034 282.600 V 262.600 C 1124.034 262.545 1123.989 262.500 1123.934 262.500 H 1119.034 C 1118.934 262.500 1119.034 262.600 1119.034 262.500 V 252.700 C 1119.034 252.600 1118.934 252.700 1119.034 252.700 H 1123.934 C 1123.989 252.700 1124.034 252.655 1124.034 252.600 V 232.600 C 1124.034 232.545 1123.989 232.500 1123.934 232.500 H 1119.034 C 1118.934 232.500 1119.034 232.600 1119.034 232.500 V 222.700 C 1119.034 222.600 1118.934 222.700 1119.034 222.700 H 1123.934 C 1123.989 222.700 1124.034 222.655 1124.034 222.600 V 202.600 C 1124.034 202.545 1123.989 202.500 1123.934 202.500 H 1119.034 C 1118.934 202.500 1119.034 202.600 1119.034 202.500 V 192.700 C 1119.034 192.600 1118.934 192.700 1119.034 192.700 H 1123.934 C 1123.989 192.700 1124.034 192.655 1124.034 192.600 V 172.600 C 1124.034 172.545 1123.989 172.500 1123.934 172.500 H 1119.034 C 1118.934 172.500 1119.034 172.600 1119.034 172.500 V 162.700 C 1119.034 162.600 1118.934 162.700 1119.034 162.700 H 1123.934 C 1123.989 162.700 1124.034 162.655 1124.034 162.600 V 142.600 C 1124.034 142.545 1123.989 142.500 1123.934 142.500 H 1119.034 C 1118.934 142.500 1119.034 142.600 1119.034 142.500 V 132.700 C 1119.034 132.600 1118.934 132.700 1119.034 132.700 H 1123.934 C 1123.989 132.700 1124.034 132.655 1124.034 132.600 V 112.600 C 1124.034 112.545 1123.989 112.500 1123.934 112.500 H 1119.034 C 1118.934 112.500 1119.034 112.600 1119.034 112.500 V 102.700 C 1119.034 102.600 1118.934 102.700 1119.034 102.700 H 1123.934 C 1123.989 102.700 1124.034 102.655 1124.034 102.600 V 82.600 C 1124.034 82.545 1123.989 82.500 1123.934 82.500 H 1119.034 C 1118.934 82.500 1119.034 82.600 1119.034 82.500 V 72.700 C 1119.034 72.600 1118.934 72.700 1119.034 72.700 H 1123.934 C 1123.989 72.700 1124.034 72.655 1124.034 72.600 V 52.600 C 1124.034 52.545 1123.989 52.500 1123.934 52.500 H 1119.034 C 1118.934 52.500 1119.034 52.600 1119.034 52.500 V 42.700 C 1119.034 42.600 1118.934 42.700 1119.034 42.700 H 1123.934 C 1123.989 42.700 1124.034 42.655 1124.034 42.600 V 22.600 C 1124.034 22.545 1123.989 22.500 1123.934 22.500 H 1119.034 C 1118.934 22.500 1119.034 22.600 1119.034 22.500 V 15.100 V 10.100 C 1119.034 10.045 1118.989 10.000 1118.934 10.000 H 1111.199 C 1111.143 10.000 1111.099 10.045 1111.099 10.100 V 15.000 C 1111.099 15.100 1111.199 15.000 1111.099 15.000 H 1091.299 C 1091.199 15.000 1091.299 15.100 1091.299 15.000 V 10.100 C 1091.299 10.045 1091.254 10.000 1091.199 10.000 H 1081.199 C 1081.143 10.000 1081.099 10.045 1081.099 10.100 V 15.000 C 1081.099 15.100 1081.199 15.000 1081.099 15.000 H 1061.299 C 1061.199 15.000 1061.299 15.100 1061.299 15.000 V 10.100 C 1061.299 10.045 1061.254 10.000 1061.199 10.000 H 1051.199 C 1051.143 10.000 1051.099 10.045 1051.099 10.100 V 15.000 C 1051.099 15.100 1051.199 15.000 1051.099 15.000 H 1031.299 C 1031.199 15.000 1031.299 15.100 1031.299 15.000 V 10.100 C 1031.299 10.045 1031.254 10.000 1031.199 10.000 H 1021.199 C 1021.143 10.000 1021.099 10.045 1021.099 10.100 V 15.000 C 1021.099 15.100 1021.199 15.000 1021.099 15.000 H 1001.299 C 1001.199 15.000 1001.299 15.100 1001.299 15.000 V 10.100 C 1001.299 10.045 1001.254 10.000 1001.199 10.000 H 991.199 C 991.143 10.000 991.099 10.045 991.099 10.100 V 15.000 C 991.099 15.100 991.199 15.000 991.099 15.000 H 971.299 C 971.199 15.000 971.299 15.100 971.299 15.000 V 10.100 C 971.299 10.045 971.254 10.000 971.199 10.000 H 963.464 C 963.408 10.000 963.364 10.045 963.364 10.100 V 15.100 V 22.500 C 963.364 22.600 963.464 22.500 963.364 22.500 H 958.464 C 958.408 22.500 958.364 22.545 958.364 22.600 V 42.600 C 958.364 42.655 958.408 42.700 958.464 42.700 H 963.364 C 963.464 42.700 963.364 42.600 963.364 42.700 V 52.500 C 963.364 52.600 963.464 52.500 963.364 52.500 H 958.464 C 958.408 52.500 958.364 52.545 958.364 52.600 V 72.600 C 958.364 72.655 958.408 72.700 958.464 72.700 H 963.364 C 963.464 72.700 963.364 72.600 963.364 72.700 V 82.500 C 963.364 82.600 963.464 82.500 963.364 82.500 H 958.464 C 958.408 82.500 958.364 82.545 958.364 82.600 V 102.600 C 958.364 102.655 958.408 102.700 958.464 102.700 H 963.364 C 963.464 102.700 963.364 102.600 963.364 102.700 V 112.500 C 963.364 112.600 963.464 112.500 963.364 112.500 H 958.464 C 958.408 112.500 958.364 112.545 958.364 112.600 V 132.600 C 958.364 132.655 958.408 132.700 958.464 132.700 H 963.364 C 963.464 132.700 963.364 132.600 963.364 132.700 V 142.500 C 963.364 142.600 963.464 142.500 963.364 142.500 H 958.464 C 958.408 142.500 958.364 142.545 958.364 142.600 V 162.600 C 958.364 162.655 958.408 162.700 958.464 162.700 H 963.364 C 963.464 162.700 963.364 162.600 963.364 162.700 V 172.500 C 963.364 172.600 963.464 172.500 963.364 172.500 H 958.464 C 958.408 172.500 958.364 172.545 958.364 172.600 V 192.600 C 958.364 192.655 958.408 192.700 958.464 192.700 H 963.364 C 963.464 192.700 963.364 192.600 963.364 192.700 V 202.500 C 963.364 202.600 963.464 202.500 963.364 202.500 H 958.464 C 958.408 202.500 958.364 202.545 958.364 202.600 V 222.600 C 958.364 222.655 958.408 222.700 958.464 222.700 H 963.364 C 963.464 222.700 963.364 222.600 963.364 222.700 V 232.500 C 963.364 232.600 963.464 232.500 963.364 232.500 H 958.464 C 958.408 232.500 958.364 232.545 958.364 232.600 V 252.600 C 958.364 252.655 958.408 252.700 958.464 252.700 H 963.364 C 963.464 252.700 963.364 252.600 963.364 252.700 V 262.500 C 963.364 262.600 963.464 262.500 963.364 262.500 H 958.464 C 958.408 262.500 958.364 262.545 958.364 262.600 V 282.600 C 958.364 282.655 958.408 282.700 958.464 282.700 H 963.364 C 963.464 282.700 963.364 282.600 963.364 282.700 V 292.500 C 963.364 292.600 963.464 292.500 963.364 292.500 H 958.464 C 958.408 292.500 958.364 292.545 958.364 292.600 V 312.600 C 958.364 312.655 958.408 312.700 958.464 312.700 H 963.364 C 963.464 312.700 963.364 312.600 963.364 312.700 V 322.500 C 963.364 322.600 963.464 322.500 963.364 322.500 H 958.464 C 958.408 322.500 958.364 322.545 958.364 322.600 V 342.600 C 958.364 342.655 958.408 342.700 958.464 342.700 H 963.364 C 963.464 342.700 963.364 342.600 963.364 342.700 V 352.500 C 963.364 352.600 963.464 352.500 963.364 352.500 H 958.464 C 958.408 352.500 958.364 352.545 958.364 352.600 V 372.600 C 958.364 372.655 958.408 372.700 958.464 372.700 H 963.364 C 963.464 372.700 963.364 372.600 963.364 372.700 V 382.500 C 963.364 382.600 963.464 382.500 963.364 382.500 H 958.464 C 958.408 382.500 958.364 382.545 958.364 382.600 V 402.600 C 958.364 402.655 958.408 402.700 958.464 402.700 H 963.364 C 963.464 402.700 963.364 402.600 963.364 402.700 V 412.500 C 963.364 412.600 963.464 412.500 963.364 412.500 H 958.464 C 958.408 412.500 958.364 412.545 958.364 412.600 V 432.600 C 958.364 432.655 958.408 432.700 958.464 432.700 H 963.364 C 963.464 432.700 963.364 432.600 963.364 432.700 V 442.500 C 963.364 442.600 963.464 442.500 963.364 442.500 H 958.464 C 958.408 442.500 958.364 442.545 958.364 442.600 V 462.600 C 958.364 462.655 958.408 462.700 958.464 462.700 H 963.364 C 963.464 462.700 963.364 462.600 963.364 462.700 V 472.500 C 963.364 472.600 963.464 472.500 963.364 472.500 H 958.464 C 958.408 472.500 958.364 472.545 958.364 472.600 V 492.600 C 958.364 492.655 958.408 492.700 958.464 492.700 H 963.364 C 963.464 492.700 963.364 492.600 963.364 492.700 V 502.500 C 963.364 502.600 963.464 502.500 963.364 502.500 H 958.464 C 958.408 502.500 958.364 502.545 958.364 502.600 V 522.600 C 958.364 522.655 958.408 522.700 958.464 522.700 H 963.364 C 963.464 522.700 963.364 522.600 963.364 522.700 V 532.500 C 963.364 532.600 963.464 532.500 963.364 532.500 H 958.464 C 958.408 532.500 958.364 532.545 958.364 532.600 V 552.600 C 958.364 552.655 958.408 552.700 958.464 552.700 H 963.364 C 963.464 552.700 963.364 552.600 963.364 552.700 V 562.500 C 963.364 562.600 963.464 562.500 963.364 562.500 H 958.464 C 958.408 562.500 958.364 562.545 958.364 562.600 V 582.600 C 958.364 582.655 958.408 582.700 958.464 582.700 H 963.364 C 963.464 582.700 963.364 582.600 963.364 582.700 V 590.100 V 595.100 C 963.364 595.155 963.408 595.200 963.464 595.200 Z" stroke="rgb(0,0,0)" stroke-width="0.20" />
</g>
</svg>